<svg id="svg" version="1.1" width="400" height="400" xmlns="http://www.w3.org/2000/svg" xmlns:xlink="http://www.w3.org/1999/xlink" style="display: block;"><g id="svgg"><path id="path0" d="M0.000 32.000 L 0.000 42.000 15.000 42.000 L 30.000 42.000 30.000 48.000 L 30.000 54.000 15.000 54.000 L 0.000 54.000 0.000 64.000 L 0.000 74.000 15.000 74.000 L 30.000 74.000 30.000 80.000 L 30.000 86.000 15.000 86.000 L 0.000 86.000 0.000 96.000 L 0.000 106.000 15.000 106.000 L 30.000 106.000 30.000 112.000 L 30.000 118.000 15.000 118.000 L 0.000 118.000 0.000 128.000 L 0.000 138.000 15.000 138.000 L 30.000 138.000 30.000 144.000 L 30.000 150.000 15.000 150.000 L 0.000 150.000 0.000 160.000 L 0.000 170.000 15.000 170.000 L 30.000 170.000 30.000 176.000 L 30.000 182.000 15.000 182.000 L 0.000 182.000 0.000 192.000 L 0.000 202.000 25.000 202.000 L 50.000 202.000 50.000 112.000 L 50.000 22.000 25.000 22.000 L 0.000 22.000 0.000 32.000 M54.000 32.000 L 54.000 42.000 198.000 42.000 L 342.000 42.000 342.000 48.000 L 342.000 54.000 198.000 54.000 L 54.000 54.000 54.000 64.000 L 54.000 74.000 198.000 74.000 L 342.000 74.000 342.000 80.000 L 342.000 86.000 198.000 86.000 L 54.000 86.000 54.000 96.000 L 54.000 106.000 198.000 106.000 L 342.000 106.000 342.000 112.000 L 342.000 118.000 198.000 118.000 L 54.000 118.000 54.000 128.000 L 54.000 138.000 198.000 138.000 L 342.000 138.000 342.000 144.000 L 342.000 150.000 198.000 150.000 L 54.000 150.000 54.000 160.000 L 54.000 170.000 198.000 170.000 L 342.000 170.000 342.000 176.000 L 342.000 182.000 198.000 182.000 L 54.000 182.000 54.000 192.000 L 54.000 202.000 208.000 202.000 L 362.000 202.000 362.000 112.000 L 362.000 22.000 208.000 22.000 L 54.000 22.000 54.000 32.000 M366.000 32.000 L 366.000 42.000 383.000 42.000 L 400.000 42.000 400.000 32.000 L 400.000 22.000 383.000 22.000 L 366.000 22.000 366.000 32.000 M366.000 64.000 L 366.000 74.000 383.000 74.000 L 400.000 74.000 400.000 64.000 L 400.000 54.000 383.000 54.000 L 366.000 54.000 366.000 64.000 M366.000 96.000 L 366.000 106.000 383.000 106.000 L 400.000 106.000 400.000 96.000 L 400.000 86.000 383.000 86.000 L 366.000 86.000 366.000 96.000 M366.000 128.000 L 366.000 138.000 383.000 138.000 L 400.000 138.000 400.000 128.000 L 400.000 118.000 383.000 118.000 L 366.000 118.000 366.000 128.000 M366.000 160.000 L 366.000 170.000 383.000 170.000 L 400.000 170.000 400.000 160.000 L 400.000 150.000 383.000 150.000 L 366.000 150.000 366.000 160.000 M366.000 192.000 L 366.000 202.000 383.000 202.000 L 400.000 202.000 400.000 192.000 L 400.000 182.000 383.000 182.000 L 366.000 182.000 366.000 192.000 M54.000 292.000 L 54.000 378.000 200.000 378.000 L 346.000 378.000 346.000 292.000 L 346.000 206.000 336.000 206.000 L 326.000 206.000 326.000 282.000 L 326.000 358.000 200.000 358.000 L 74.000 358.000 74.000 282.000 L 74.000 206.000 64.000 206.000 L 54.000 206.000 54.000 292.000 M374.000 216.000 L 374.000 226.000 384.000 226.000 L 394.000 226.000 394.000 216.000 L 394.000 206.000 384.000 206.000 L 374.000 206.000 374.000 216.000 M190.000 264.000 C 190.000 297.333,189.961 298.000,188.000 298.000 C 186.667 298.000,186.000 297.333,186.000 296.000 C 186.000 294.667,185.333 294.000,184.000 294.000 C 182.667 294.000,182.000 293.333,182.000 292.000 C 182.000 290.667,181.333 290.000,180.000 290.000 C 178.667 290.000,178.000 289.333,178.000 288.000 C 178.000 286.667,177.333 286.000,176.000 286.000 C 174.667 286.000,174.000 285.333,174.000 284.000 C 174.000 282.708,173.333 282.000,172.117 282.000 C 171.074 282.000,170.000 281.107,169.710 280.000 C 169.325 278.528,168.346 278.000,166.000 278.000 C 163.654 278.000,162.675 278.528,162.290 280.000 C 162.000 281.107,160.926 282.000,159.883 282.000 C 158.667 282.000,158.000 282.708,158.000 284.000 C 158.000 285.333,157.333 286.000,156.000 286.000 C 154.708 286.000,154.000 286.667,154.000 287.883 C 154.000 288.926,153.107 290.000,152.000 290.290 C 150.528 290.675,150.000 291.654,150.000 294.000 C 150.000 296.346,150.528 297.325,152.000 297.710 C 153.107 298.000,154.000 299.074,154.000 300.117 C 154.000 301.333,154.708 302.000,156.000 302.000 C 157.333 302.000,158.000 302.667,158.000 304.000 C 158.000 305.333,158.667 306.000,160.000 306.000 C 161.333 306.000,162.000 306.667,162.000 308.000 C 162.000 309.333,162.667 310.000,164.000 310.000 C 165.333 310.000,166.000 310.667,166.000 312.000 C 166.000 313.333,166.667 314.000,168.000 314.000 C 169.333 314.000,170.000 314.667,170.000 316.000 C 170.000 317.333,170.667 318.000,172.000 318.000 C 173.333 318.000,174.000 318.667,174.000 320.000 C 174.000 321.333,174.667 322.000,176.000 322.000 C 177.333 322.000,178.000 322.667,178.000 324.000 C 178.000 325.333,178.667 326.000,180.000 326.000 C 181.333 326.000,182.000 326.667,182.000 328.000 C 182.000 329.333,182.667 330.000,184.000 330.000 C 185.333 330.000,186.000 330.667,186.000 332.000 C 186.000 333.333,186.667 334.000,188.000 334.000 C 189.333 334.000,190.000 334.667,190.000 336.000 C 190.000 337.333,190.667 338.000,192.000 338.000 C 193.333 338.000,194.000 338.667,194.000 340.000 C 194.000 341.778,194.667 342.000,200.000 342.000 C 205.333 342.000,206.000 341.778,206.000 340.000 C 206.000 338.667,206.667 338.000,208.000 338.000 C 209.333 338.000,210.000 337.333,210.000 336.000 C 210.000 334.667,210.667 334.000,212.000 334.000 C 213.333 334.000,214.000 333.333,214.000 332.000 C 214.000 330.667,214.667 330.000,216.000 330.000 C 217.333 330.000,218.000 329.333,218.000 328.000 C 218.000 326.667,218.667 326.000,220.000 326.000 C 221.333 326.000,222.000 325.333,222.000 324.000 C 222.000 322.667,222.667 322.000,224.000 322.000 C 225.333 322.000,226.000 321.333,226.000 320.000 C 226.000 318.667,226.667 318.000,228.000 318.000 C 229.333 318.000,230.000 317.333,230.000 316.000 C 230.000 314.667,230.667 314.000,232.000 314.000 C 233.333 314.000,234.000 313.333,234.000 312.000 C 234.000 310.667,234.667 310.000,236.000 310.000 C 237.333 310.000,238.000 309.333,238.000 308.000 C 238.000 306.667,238.667 306.000,240.000 306.000 C 241.333 306.000,242.000 305.333,242.000 304.000 C 242.000 302.667,242.667 302.000,244.000 302.000 C 245.333 302.000,246.000 301.333,246.000 300.000 C 246.000 298.667,246.667 298.000,248.000 298.000 C 249.667 298.000,250.000 297.333,250.000 294.000 C 250.000 290.667,249.667 290.000,248.000 290.000 C 246.667 290.000,246.000 289.333,246.000 288.000 C 246.000 286.667,245.333 286.000,244.000 286.000 C 242.667 286.000,242.000 285.333,242.000 284.000 C 242.000 282.667,241.333 282.000,240.000 282.000 C 238.667 282.000,238.000 281.333,238.000 280.000 C 238.000 278.333,237.333 278.000,234.000 278.000 C 230.667 278.000,230.000 278.333,230.000 280.000 C 230.000 281.333,229.333 282.000,228.000 282.000 C 226.667 282.000,226.000 282.667,226.000 284.000 C 226.000 285.333,225.333 286.000,224.000 286.000 C 222.667 286.000,222.000 286.667,222.000 288.000 C 222.000 289.333,221.333 290.000,220.000 290.000 C 218.667 290.000,218.000 290.667,218.000 292.000 C 218.000 293.333,217.333 294.000,216.000 294.000 C 214.667 294.000,214.000 294.667,214.000 296.000 C 214.000 297.333,213.333 298.000,212.000 298.000 C 210.039 298.000,210.000 297.333,210.000 264.000 L 210.000 230.000 200.000 230.000 L 190.000 230.000 190.000 264.000 M374.000 240.000 L 374.000 250.000 384.000 250.000 L 394.000 250.000 394.000 240.000 L 394.000 230.000 384.000 230.000 L 374.000 230.000 374.000 240.000 M374.000 264.000 L 374.000 274.000 384.000 274.000 L 394.000 274.000 394.000 264.000 L 394.000 254.000 384.000 254.000 L 374.000 254.000 374.000 264.000 M374.000 288.000 L 374.000 298.000 384.000 298.000 L 394.000 298.000 394.000 288.000 L 394.000 278.000 384.000 278.000 L 374.000 278.000 374.000 288.000 M374.000 312.000 L 374.000 322.000 384.000 322.000 L 394.000 322.000 394.000 312.000 L 394.000 302.000 384.000 302.000 L 374.000 302.000 374.000 312.000 M370.314 327.908 C 370.040 328.957,368.957 330.040,367.908 330.314 C 366.152 330.773,366.000 331.867,366.000 344.000 C 366.000 356.133,366.152 357.227,367.908 357.686 C 368.957 357.960,370.040 359.043,370.314 360.092 C 371.101 363.102,396.922 363.015,397.710 360.000 C 397.998 358.900,398.631 358.000,399.117 358.000 C 399.602 358.000,400.000 351.700,400.000 344.000 C 400.000 336.300,399.602 330.000,399.117 330.000 C 398.631 330.000,397.998 329.100,397.710 328.000 C 396.922 324.985,371.101 324.898,370.314 327.908 " stroke="#b7c0c7" fill="#b7c0c7" fill-rule="evenodd"></path></g></svg>
