<svg id="svg" version="1.1" width="400" height="400" xmlns="http://www.w3.org/2000/svg" xmlns:xlink="http://www.w3.org/1999/xlink" style="display: block;"><g id="svgg"><path id="path0" d="M0.000 32.000 L 0.000 42.000 15.000 42.000 L 30.000 42.000 30.000 48.000 L 30.000 54.000 15.000 54.000 L 0.000 54.000 0.000 64.000 L 0.000 74.000 15.000 74.000 L 30.000 74.000 30.000 80.000 L 30.000 86.000 15.000 86.000 L 0.000 86.000 0.000 96.000 L 0.000 106.000 15.000 106.000 L 30.000 106.000 30.000 112.000 L 30.000 118.000 15.000 118.000 L 0.000 118.000 0.000 128.000 L 0.000 138.000 15.000 138.000 L 30.000 138.000 30.000 144.000 L 30.000 150.000 15.000 150.000 L 0.000 150.000 0.000 160.000 L 0.000 170.000 15.000 170.000 L 30.000 170.000 30.000 176.000 L 30.000 182.000 15.000 182.000 L 0.000 182.000 0.000 192.000 L 0.000 202.000 25.000 202.000 L 50.000 202.000 50.000 112.000 L 50.000 22.000 25.000 22.000 L 0.000 22.000 0.000 32.000 M54.000 32.000 L 54.000 42.000 198.000 42.000 L 342.000 42.000 342.000 48.000 L 342.000 54.000 198.000 54.000 L 54.000 54.000 54.000 64.000 L 54.000 74.000 198.000 74.000 L 342.000 74.000 342.000 80.000 L 342.000 86.000 198.000 86.000 L 54.000 86.000 54.000 96.000 L 54.000 106.000 198.000 106.000 L 342.000 106.000 342.000 112.000 L 342.000 118.000 198.000 118.000 L 54.000 118.000 54.000 128.000 L 54.000 138.000 198.000 138.000 L 342.000 138.000 342.000 144.000 L 342.000 150.000 198.000 150.000 L 54.000 150.000 54.000 160.000 L 54.000 170.000 198.000 170.000 L 342.000 170.000 342.000 176.000 L 342.000 182.000 198.000 182.000 L 54.000 182.000 54.000 192.000 L 54.000 202.000 208.000 202.000 L 362.000 202.000 362.000 112.000 L 362.000 22.000 208.000 22.000 L 54.000 22.000 54.000 32.000 M366.000 32.000 L 366.000 42.000 383.000 42.000 L 400.000 42.000 400.000 32.000 L 400.000 22.000 383.000 22.000 L 366.000 22.000 366.000 32.000 M366.000 64.000 L 366.000 74.000 383.000 74.000 L 400.000 74.000 400.000 64.000 L 400.000 54.000 383.000 54.000 L 366.000 54.000 366.000 64.000 M366.000 96.000 L 366.000 106.000 383.000 106.000 L 400.000 106.000 400.000 96.000 L 400.000 86.000 383.000 86.000 L 366.000 86.000 366.000 96.000 M366.000 128.000 L 366.000 138.000 383.000 138.000 L 400.000 138.000 400.000 128.000 L 400.000 118.000 383.000 118.000 L 366.000 118.000 366.000 128.000 M366.000 160.000 L 366.000 170.000 383.000 170.000 L 400.000 170.000 400.000 160.000 L 400.000 150.000 383.000 150.000 L 366.000 150.000 366.000 160.000 M366.000 192.000 L 366.000 202.000 383.000 202.000 L 400.000 202.000 400.000 192.000 L 400.000 182.000 383.000 182.000 L 366.000 182.000 366.000 192.000 M54.000 292.000 L 54.000 378.000 200.000 378.000 L 346.000 378.000 346.000 292.000 L 346.000 206.000 336.000 206.000 L 326.000 206.000 326.000 282.000 L 326.000 358.000 200.000 358.000 L 74.000 358.000 74.000 282.000 L 74.000 206.000 64.000 206.000 L 54.000 206.000 54.000 292.000 M374.000 216.000 L 374.000 226.000 384.000 226.000 L 394.000 226.000 394.000 216.000 L 394.000 206.000 384.000 206.000 L 374.000 206.000 374.000 216.000 M194.000 220.000 C 194.000 221.333,193.333 222.000,192.000 222.000 C 190.667 222.000,190.000 222.667,190.000 224.000 C 190.000 225.333,189.333 226.000,188.000 226.000 C 186.667 226.000,186.000 226.667,186.000 228.000 C 186.000 229.333,185.333 230.000,184.000 230.000 C 182.667 230.000,182.000 230.667,182.000 232.000 C 182.000 233.333,181.333 234.000,180.000 234.000 C 178.667 234.000,178.000 234.667,178.000 236.000 C 178.000 237.333,177.333 238.000,176.000 238.000 C 174.667 238.000,174.000 238.667,174.000 240.000 C 174.000 241.333,173.333 242.000,172.000 242.000 C 170.667 242.000,170.000 242.667,170.000 244.000 C 170.000 245.333,169.333 246.000,168.000 246.000 C 166.667 246.000,166.000 246.667,166.000 248.000 C 166.000 249.333,165.333 250.000,164.000 250.000 C 162.667 250.000,162.000 250.667,162.000 252.000 C 162.000 253.333,161.333 254.000,160.000 254.000 C 158.667 254.000,158.000 254.667,158.000 256.000 C 158.000 257.333,157.333 258.000,156.000 258.000 C 154.708 258.000,154.000 258.667,154.000 259.883 C 154.000 260.926,153.107 262.000,152.000 262.290 C 150.528 262.675,150.000 263.654,150.000 266.000 C 150.000 268.346,150.528 269.325,152.000 269.710 C 153.107 270.000,154.000 271.074,154.000 272.117 C 154.000 273.333,154.708 274.000,156.000 274.000 C 157.333 274.000,158.000 274.667,158.000 276.000 C 158.000 277.292,158.667 278.000,159.883 278.000 C 160.926 278.000,162.000 278.893,162.290 280.000 C 162.675 281.472,163.654 282.000,166.000 282.000 C 168.346 282.000,169.325 281.472,169.710 280.000 C 170.000 278.893,171.074 278.000,172.117 278.000 C 173.333 278.000,174.000 277.292,174.000 276.000 C 174.000 274.667,174.667 274.000,176.000 274.000 C 177.333 274.000,178.000 273.333,178.000 272.000 C 178.000 270.667,178.667 270.000,180.000 270.000 C 181.333 270.000,182.000 269.333,182.000 268.000 C 182.000 266.667,182.667 266.000,184.000 266.000 C 185.333 266.000,186.000 265.333,186.000 264.000 C 186.000 262.667,186.667 262.000,188.000 262.000 C 189.961 262.000,190.000 262.667,190.000 296.000 L 190.000 330.000 200.000 330.000 L 210.000 330.000 210.000 296.000 C 210.000 262.667,210.039 262.000,212.000 262.000 C 213.333 262.000,214.000 262.667,214.000 264.000 C 214.000 265.333,214.667 266.000,216.000 266.000 C 217.333 266.000,218.000 266.667,218.000 268.000 C 218.000 269.333,218.667 270.000,220.000 270.000 C 221.333 270.000,222.000 270.667,222.000 272.000 C 222.000 273.333,222.667 274.000,224.000 274.000 C 225.333 274.000,226.000 274.667,226.000 276.000 C 226.000 277.333,226.667 278.000,228.000 278.000 C 229.333 278.000,230.000 278.667,230.000 280.000 C 230.000 281.667,230.667 282.000,234.000 282.000 C 237.333 282.000,238.000 281.667,238.000 280.000 C 238.000 278.667,238.667 278.000,240.000 278.000 C 241.333 278.000,242.000 277.333,242.000 276.000 C 242.000 274.667,242.667 274.000,244.000 274.000 C 245.333 274.000,246.000 273.333,246.000 272.000 C 246.000 270.667,246.667 270.000,248.000 270.000 C 249.667 270.000,250.000 269.333,250.000 266.000 C 250.000 262.667,249.667 262.000,248.000 262.000 C 246.667 262.000,246.000 261.333,246.000 260.000 C 246.000 258.667,245.333 258.000,244.000 258.000 C 242.667 258.000,242.000 257.333,242.000 256.000 C 242.000 254.667,241.333 254.000,240.000 254.000 C 238.667 254.000,238.000 253.333,238.000 252.000 C 238.000 250.667,237.333 250.000,236.000 250.000 C 234.667 250.000,234.000 249.333,234.000 248.000 C 234.000 246.667,233.333 246.000,232.000 246.000 C 230.667 246.000,230.000 245.333,230.000 244.000 C 230.000 242.667,229.333 242.000,228.000 242.000 C 226.667 242.000,226.000 241.333,226.000 240.000 C 226.000 238.667,225.333 238.000,224.000 238.000 C 222.667 238.000,222.000 237.333,222.000 236.000 C 222.000 234.667,221.333 234.000,220.000 234.000 C 218.667 234.000,218.000 233.333,218.000 232.000 C 218.000 230.667,217.333 230.000,216.000 230.000 C 214.667 230.000,214.000 229.333,214.000 228.000 C 214.000 226.667,213.333 226.000,212.000 226.000 C 210.667 226.000,210.000 225.333,210.000 224.000 C 210.000 222.667,209.333 222.000,208.000 222.000 C 206.667 222.000,206.000 221.333,206.000 220.000 C 206.000 218.222,205.333 218.000,200.000 218.000 C 194.667 218.000,194.000 218.222,194.000 220.000 M374.000 240.000 L 374.000 250.000 384.000 250.000 L 394.000 250.000 394.000 240.000 L 394.000 230.000 384.000 230.000 L 374.000 230.000 374.000 240.000 M374.000 264.000 L 374.000 274.000 384.000 274.000 L 394.000 274.000 394.000 264.000 L 394.000 254.000 384.000 254.000 L 374.000 254.000 374.000 264.000 M374.000 288.000 L 374.000 298.000 384.000 298.000 L 394.000 298.000 394.000 288.000 L 394.000 278.000 384.000 278.000 L 374.000 278.000 374.000 288.000 M374.000 312.000 L 374.000 322.000 384.000 322.000 L 394.000 322.000 394.000 312.000 L 394.000 302.000 384.000 302.000 L 374.000 302.000 374.000 312.000 M370.314 327.908 C 370.040 328.957,368.957 330.040,367.908 330.314 C 366.152 330.773,366.000 331.867,366.000 344.000 C 366.000 356.133,366.152 357.227,367.908 357.686 C 368.957 357.960,370.040 359.043,370.314 360.092 C 371.101 363.102,396.922 363.015,397.710 360.000 C 397.998 358.900,398.631 358.000,399.117 358.000 C 399.602 358.000,400.000 351.700,400.000 344.000 C 400.000 336.300,399.602 330.000,399.117 330.000 C 398.631 330.000,397.998 329.100,397.710 328.000 C 396.922 324.985,371.101 324.898,370.314 327.908 "  stroke="#b7c0c7" fill="#b7c0c7" fill-rule="evenodd"></path></g></svg>
