<?xml version="1.0" encoding="utf-8"?>
<!-- Svg Vector Icons : http://www.onlinewebfonts.com/icon -->
<!DOCTYPE svg PUBLIC "-//W3C//DTD SVG 1.1//EN" "http://www.w3.org/Graphics/SVG/1.1/DTD/svg11.dtd">
<svg version="1.1" xmlns="http://www.w3.org/2000/svg" xmlns:xlink="http://www.w3.org/1999/xlink" x="0px" y="0px" viewBox="0 0 1000 1000" enable-background="new 0 0 1000 1000" xml:space="preserve">
<metadata> Svg Vector Icons : http://www.onlinewebfonts.com/icon </metadata>
<g><g fill="red" transform="matrix(1 0 0 -1 0 1920)"><path d="M101,995.4c0,13.7-0.6,26.6-1.9,38.6c-1.3,12-2.6,22.1-4.1,30.4c-1.5,8.2-3.9,17.3-7.2,27.3c-3.3,10-6.1,17.6-8.4,22.8c-2.3,5.3-5.6,12.9-10,23c-5,11.7-8.9,20.8-11.7,27.3c-2.7,6.5-6.3,16.2-10.6,29s-7.6,24.8-9.8,35.9c-2.2,11.1-4.1,24.7-5.8,40.8s-2.6,33.1-2.6,51c0,22,1.1,42.1,3.3,60.4c2.2,18.3,5.6,35.4,10.3,51.3c4.7,15.9,8.8,28.3,12.2,37.1c3.4,8.8,8.4,20.5,14.8,35.2c5.5,12.6,9.6,22.4,12.4,29.3s5.9,16.5,9.4,28.7c3.5,12.1,6.1,24.9,7.6,38.4c1.5,13.5,2.2,28.7,2.2,45.7H20c-6.6,0-10,2.3-10,6.9c0,2.1,0.9,4.3,2.7,6.9l130.4,177.5c2.7,3.9,6.2,5.8,10.3,5.8s7.6-1.8,10.3-5.5l137-177.8c1.8-2.5,2.7-4.9,2.7-7.2c0-4.3-3.2-6.5-9.6-6.5h-89.9c0-22-1.1-42.1-3.3-60.4c-2.2-18.3-5.6-35.4-10.3-51.3c-4.7-15.9-8.8-28.3-12.2-37.1c-3.4-8.8-8.4-20.5-14.8-35.2c-5.5-12.4-9.6-22.1-12.4-29.2c-2.7-7.1-5.9-16.7-9.4-28.8c-3.5-12.1-6.1-24.9-7.6-38.4c-1.5-13.5-2.2-28.7-2.2-45.7c0-16.9,0.7-32.2,2.2-45.8c1.5-13.6,4-26.4,7.6-38.4c3.5-12,6.7-21.6,9.4-28.7c2.7-7.1,6.9-16.8,12.4-29.2c6.4-14.6,11.3-26.4,14.8-35.2c3.4-8.8,7.5-21.2,12.2-37.1c4.7-15.9,8.1-33,10.3-51.3c2.2-18.3,3.3-38.4,3.3-60.4H101z M444.2,995.4c0,16.9-0.7,32.2-2.2,45.7c-1.5,13.5-4,26.3-7.6,38.4c-3.5,12.1-6.7,21.7-9.4,28.7c-2.7,7-6.9,16.8-12.4,29.3c-6.4,14.6-11.3,26.4-14.8,35.2c-3.4,8.8-7.5,21.2-12.2,37.1c-4.7,15.9-8.1,33-10.3,51.3c-2.2,18.3-3.3,38.4-3.3,60.4s1.1,42.1,3.3,60.4c2.2,18.3,5.6,35.4,10.3,51.3c4.7,15.9,8.8,28.3,12.2,37.1c3.4,8.8,8.4,20.5,14.8,35.2c5.5,12.6,9.6,22.4,12.4,29.3c2.7,7,5.9,16.5,9.4,28.7c3.5,12.1,6.1,24.9,7.6,38.4c1.5,13.5,2.2,28.7,2.2,45.7h-81c-6.6,0-10,2.3-10,6.9c0,2.1,0.9,4.3,2.7,6.9l130.4,177.5c2.7,3.9,6.2,5.8,10.3,5.8s7.6-1.8,10.3-5.5l137-177.8c1.8-2.5,2.7-4.9,2.7-7.2c0-4.3-3.2-6.5-9.6-6.5h-89.9c0-17.8-0.9-34.8-2.6-51c-1.7-16.1-3.7-29.7-5.8-40.8c-2.2-11.1-5.4-23.1-9.8-35.9c-4.3-12.8-7.8-22.5-10.5-29c-2.6-6.5-6.6-15.6-11.8-27.3c-5.5-12.4-9.6-22.1-12.4-29.2c-2.7-7.1-5.9-16.7-9.4-28.8c-3.5-12.1-6.1-24.9-7.6-38.4c-1.5-13.5-2.2-28.7-2.2-45.7c0-11.4,0.3-22.1,1-32.1c0.7-10,1.9-19.3,3.6-28c1.7-8.7,3.3-16.2,4.8-22.7c1.5-6.4,3.7-13.6,6.7-21.5c3-7.9,5.4-14.1,7.2-18.7c1.8-4.6,4.6-11,8.2-19.2c6.4-14.6,11.3-26.4,14.8-35.2c3.4-8.8,7.5-21.2,12.2-37.1c4.7-15.9,8.1-33,10.3-51.3c2.2-18.3,3.3-38.4,3.3-60.4H444.2z M787.5,995.4c0,16.9-0.7,32.2-2.2,45.7c-1.5,13.5-4,26.3-7.6,38.4s-6.7,21.7-9.4,28.7s-6.9,16.8-12.4,29.3c-6.4,14.6-11.3,26.4-14.8,35.2c-3.4,8.8-7.5,21.2-12.2,37.1c-4.7,15.9-8.1,33-10.3,51.3c-2.2,18.3-3.3,38.4-3.3,60.4s1.1,42.1,3.3,60.4c2.2,18.3,5.6,35.4,10.3,51.3c4.7,15.9,8.8,28.3,12.2,37.1c3.4,8.8,8.4,20.5,14.8,35.2c4.3,10.1,7.7,17.7,10,23c2.3,5.3,5.1,12.9,8.4,22.8c3.3,10,5.7,19.1,7.2,27.3c1.5,8.2,2.9,18.4,4.1,30.4c1.3,12,1.9,24.9,1.9,38.6h-81c-6.6,0-10,2.3-10,6.9c0,2.1,0.9,4.3,2.7,6.9l130.4,177.5c2.7,3.9,6.2,5.8,10.3,5.8c4.1,0,7.6-1.8,10.3-5.5l137-177.8c1.8-2.5,2.7-4.9,2.7-7.2c0-4.3-3.2-6.5-9.6-6.5h-89.9c0-22-1.1-42.1-3.3-60.4c-2.2-18.3-5.6-35.4-10.3-51.3c-4.7-15.9-8.8-28.3-12.2-37.1c-3.4-8.8-8.4-20.5-14.8-35.2c-5.5-12.4-9.6-22.1-12.4-29.2c-2.7-7.1-5.9-16.7-9.4-28.8s-6.1-24.9-7.6-38.4c-1.5-13.5-2.2-28.7-2.2-45.7c0-16.9,0.7-32.2,2.2-45.7s4-26.3,7.6-38.4s6.7-21.7,9.4-28.8c2.7-7.1,6.9-16.8,12.4-29.2c6.4-14.6,11.3-26.4,14.8-35.2c3.4-8.8,7.5-21.2,12.2-37.1c4.7-15.9,8.1-33,10.3-51.3c2.2-18.3,3.3-38.4,3.3-60.4H787.5z"/></g></g>
</svg>
