<?xml version="1.0" encoding="utf-8"?>
<!-- Svg Vector Icons : http://www.onlinewebfonts.com/icon -->
<!DOCTYPE svg PUBLIC "-//W3C//DTD SVG 1.1//EN" "http://www.w3.org/Graphics/SVG/1.1/DTD/svg11.dtd">
<svg version="1.1" xmlns="http://www.w3.org/2000/svg" xmlns:xlink="http://www.w3.org/1999/xlink" x="0px" y="0px" viewBox="0 0 1000 1000" enable-background="new 0 0 1000 1000" xml:space="preserve">
<metadata> Svg Vector Icons : http://www.onlinewebfonts.com/icon </metadata>
<g><g stroke="blue" fill="blue" transform="translate(0.000000,512.000000) scale(0.100000,-0.100000)"><path d="M6903.7,4994.9c-360-78.5-676-375.4-804.4-756.5c-32.6-99.6-34.5-250.9-40.2-3186.9l-3.8-3079.6l-111.1-120.7c-130.2-141.7-272-402.2-329.4-603.3c-53.6-185.8-70.9-490.3-38.3-683.7c82.4-522.9,421.3-967.2,900.1-1189.3c453.9-210.7,928.9-206.8,1369.4,13.4c335.2,166.6,563.1,392.6,727.8,720.1c128.3,256.6,168.5,457.7,157.1,766.1c-7.7,210.7-17.2,277.7-67,430.9c-67,201.1-183.9,407.9-329.4,574.6l-95.7,111.1v3022.2c0,3342,5.7,3158.1-124.5,3418.6C7893.9,4866.6,7392.1,5100.2,6903.7,4994.9z M7321.2,4786.2c358.1-76.6,630.1-362,685.7-720.1c13.4-82.3,21.1-1164.4,21.1-3179.2v-3056.6l88.1-84.3c136-130.2,262.4-339,325.6-528.6c51.7-157,55.5-193.4,55.5-438.6c-1.9-241.3-7.7-283.4-55.5-421.3c-80.4-237.5-174.3-385-344.7-557.3c-264.3-264.3-517.1-360.1-949.9-362c-218.3,0-281.5,7.7-402.2,44.1c-304.5,95.8-522.8,249-689.5,486.5c-384.9,549.7-346.6,1271.7,93.9,1742.8l136,145.5V969.2c0,3064.3,0,3114.1,38.3,3236.7c88.1,285.4,340.9,513.3,639.7,578.4C7116.3,4816.8,7168,4818.7,7321.2,4786.2z"/><path d="M7281,3501.1v-67h239.4h239.4v67v67h-239.4H7281V3501.1z"/><path d="M7281,2486v-67h239.4h239.4v67v67h-239.4H7281V2486z"/><path d="M7281,1471v-67h239.4h239.4v67v67h-239.4H7281V1471z"/><path d="M7281,455.9v-67h239.4h239.4v67v67h-239.4H7281V455.9z"/><path d="M7281-559.1v-67h239.4h239.4v67v67h-239.4H7281V-559.1z"/><path d="M7281-1574.2v-67h239.4h239.4v67v67h-239.4H7281V-1574.2z"/><path d="M6756.2-2694.6c-645.4-49.8-798.6-172.4-331.3-264.3c204.9-38.3,1175.9-46,1392.3-7.7c620.5,105.3,339,254.7-526.7,279.6C7112.5-2683.1,6871.1-2685,6756.2-2694.6z"/><path d="M6059.1-2999.1c-26.8-63.2-11.5-392.6,23-509.4c122.6-413.7,461.6-714.4,888.6-789.1c699-122.6,1334.9,463.5,1281.3,1177.8c-5.7,78.5-13.4,145.6-17.2,149.4c-3.8,3.8-51.7-9.6-107.2-30.6c-166.6-63.2-509.4-97.7-980.6-97.7c-465.4,0-777.5,30.6-965.2,93.8C6082.1-2970.3,6070.6-2970.3,6059.1-2999.1z"/><path d="M3157.6,4282.5c-7.7-5.7-13.4-168.5-13.4-358.1v-346.7l-249,249l-249,249l-105.3-105.3L2435.6,3865l354.3-354.3l354.3-354.3v-268.1v-268.1l-350.5,350.5l-348.6,348.6l-101.5-101.5c-53.6-55.5-99.6-109.2-99.6-118.7c0-9.6,153.2-172.4,339-358.1l340.9-340.9h-258.5h-258.5L2048.7,2758l-360,360L1579.5,3007l-111.1-109.2l249-249l249-249h-350.5h-348.6v-153.2v-153.2h358.1h360.1l-254.7-254.7L1478,1585.9l105.3-105.3l105.3-105.3l360,360l358.1,358.1H2675h268.1l-354.3-354.3l-354.3-354.3l105.3-105.3l105.3-105.3l348.6,348.6l350.5,350.5V1605v-268.1l-354.3-354.3l-354.3-354.3L2540.9,523l105.3-105.3l249,249l249,247.1l3.8-352.4l5.7-354.3l149.4-5.7l147.5-5.8v360.1v360l245.1-245.1c134.1-134.1,252.8-243.2,264.3-243.2c23,0,199.2,176.2,199.2,201.1c0,11.5-159,178.1-354.3,373.5l-354.3,354.3v258.5v258.5l340.9-340.9c185.8-185.8,348.6-339,358.1-339s63.2,46,118.7,99.6l101.5,101.5l-348.6,348.6l-350.5,350.5H3939h268.1l358.1-358.1l360.1-360l95.8,95.8c51.7,51.7,95.8,103.4,95.8,113c0,11.5-109.2,130.2-243.2,264.3l-245.1,245.1h360.1h358.1v153.2v153.2h-358.1h-360.1l249,249l249,249l-105.3,105.3l-105.3,105.3l-354.3-354.3l-354.3-354.3H3939h-268.1l350.5,350.5l348.6,348.6l-105.3,105.3l-105.3,105.3l-340.9-340.9c-185.8-185.8-346.7-339-354.3-339c-7.7,0-13.4,114.9-13.4,252.8v254.7l358.1,358.1l356.2,358.1l-63.2,72.8c-141.7,160.9-116.8,168.5-385-101.5c-130.2-130.2-243.2-237.5-250.9-237.5c-9.6,0-15.3,159-15.3,354.3v354.3h-139.8C3232.3,4295.9,3163.4,4290.1,3157.6,4282.5z"/></g></g>
</svg>
