<?xml version="1.0" encoding="utf-8"?>
<!-- Svg Vector Icons : http://www.onlinewebfonts.com/icon -->
<!DOCTYPE svg PUBLIC "-//W3C//DTD SVG 1.1//EN" "http://www.w3.org/Graphics/SVG/1.1/DTD/svg11.dtd">
<svg version="1.1" xmlns="http://www.w3.org/2000/svg" xmlns:xlink="http://www.w3.org/1999/xlink" x="0px" y="0px" viewBox="0 0 1000 1000" enable-background="new 0 0 1000 1000" xml:space="preserve">
<metadata> Svg Vector Icons : http://www.onlinewebfonts.com/icon </metadata>
<g><g fill="red" transform="translate(0.000000,512.000000) scale(0.100000,-0.100000)"><path d="M6899.3,4994.9c-360.1-78.5-676.2-375.5-804.5-756.7c-32.6-99.6-34.5-250.9-40.2-3187.5l-3.8-3080.2l-111.1-120.7c-130.3-141.7-272-402.3-329.5-603.4c-53.6-185.8-70.9-490.4-38.3-683.9c63.2-398.4,281.6-764.3,597.6-1007.6c490.4-375.5,1126.3-440.6,1672.3-168.6c335.2,166.6,563.2,392.7,727.9,720.2c128.4,256.7,168.6,457.8,157.1,766.2c-7.7,210.7-17.2,277.8-67.1,431c-67.1,201.1-183.9,408-329.5,574.7l-95.8,111.1v3022.8c0,3342.7,5.7,3158.8-124.5,3419.3C7889.6,4866.6,7387.8,5100.3,6899.3,4994.9z M7316.9,4786.1c358.2-76.6,630.2-362,685.8-720.3c13.4-82.4,21.1-1164.7,21.1-3179.8v-3057.3l88.1-84.3c136-130.3,262.4-339.1,325.6-528.7c51.7-157.1,55.6-193.5,55.6-438.7c-1.9-241.4-7.7-283.5-55.6-421.4c-80.4-237.5-174.3-385-344.8-557.4c-264.4-264.4-517.2-360.1-950.1-362.1c-218.4,0-281.6,7.7-402.3,44.1c-304.6,95.8-522.9,249-689.6,486.6c-385,549.8-346.7,1271.9,93.9,1743.2l136,145.6V968.4c0,3064.9,0,3114.7,38.3,3237.3c88.1,285.4,341,513.4,639.8,578.5C7112,4816.8,7163.7,4818.7,7316.9,4786.1z"/><path d="M6958.7,4523.7c-93.9-26.8-239.5-132.2-308.4-224.1c-128.3-168.6-120.7,47.9-120.7-3425v-3145.4l-153.2-151.3c-114.9-116.8-168.6-187.7-220.3-295c-214.6-454-136-923.3,212.6-1273.8c168.6-170.5,354.4-266.3,597.7-308.4c666.6-116.8,1285.4,411.8,1287.3,1097.6c0,132.2-55.6,369.7-111.1,480.8c-63.2,122.6-205,298.8-298.8,367.8l-88.1,67.1v321.8v321.8h-239.5h-239.5v67.1v67h239.5h239.5v440.6v440.6h-239.5h-239.5v67v67.1h239.5h239.5v440.6V388h-239.5h-239.5v67v67h239.5h239.5v440.6v440.6h-239.5h-239.5v67.1v67h239.5h239.5v440.6v440.6h-239.5h-239.5v67.1v67h239.5h239.5v440.6v440.6h-239.5h-239.5v67v67.1H7518h241.4l-7.7,273.9c-5.8,249-11.5,279.7-57.5,367.8c-111.1,210.7-314.1,335.2-542.1,333.3C7079.4,4542.8,6991.2,4533.2,6958.7,4523.7z"/><path d="M3208,4228.7c-17.2-24.9-49.8-91.9-74.7-147.5c-46-105.4-95.8-168.6-132.2-168.6c-9.6,0-82.4,61.3-157.1,134.1c-203.1,195.4-233.7,183.9-270.1-113c-23-203-53.6-212.6-287.3-93.9c-206.9,103.4-231.8,95.8-210.7-67c9.6-65.1,17.2-166.7,17.2-224.1l1.9-105.4l-95.8,1.9c-51.7,0-153.2,7.7-222.2,17.2c-174.3,21.1-180.1-1.9-61.3-235.6l90-180.1l-42.1-34.5c-21.1-19.2-90-40.2-151.3-46c-189.6-23-254.8-46-254.8-90c0-24.9,55.6-99.6,136-180.1c103.4-107.3,132.2-149.4,124.5-178.1c-7.7-21.1-80.5-70.9-180.1-120.7c-141.8-72.8-166.7-91.9-166.7-132.2c0-40.2,23-59.4,145.6-124.5c168.6-88.1,208.8-118.8,208.8-157.1c0-15.3-61.3-86.2-134.1-157.1c-128.3-124.5-162.8-193.5-114.9-222.2c11.5-7.7,99.6-24.9,195.4-38.3c249-38.3,252.8-44.1,141.7-270.1c-49.8-101.5-86.2-197.3-78.5-214.6c9.6-23,32.6-26.8,149.4-13.4c74.7,7.6,176.2,15.3,224.1,17.2l86.2,1.9l-1.9-105.3c-1.9-57.5-5.7-160.9-9.6-229.9c-9.6-159,11.5-164.7,214.6-59.4c231.8,120.7,249,113,283.5-137.9c21.1-145.6,46-224.1,74.7-224.1c28.7,0,114.9,69,185.8,149.4c40.2,46,97.7,95.8,126.4,109.2c65.1,34.5,86.2,13.4,178.1-174.3c113-231.8,143.7-229.9,268.2,11.5c47.9,92,101.5,174.3,118.8,180.1c19.2,7.7,78.5-34.5,180.1-132.2c82.4-78.5,159-143.7,170.5-143.7c38.3,0,74.7,86.2,88.1,201.1c19.2,178.1,44.1,239.4,93.9,239.4c24.9,0,109.2-34.5,189.6-76.6c78.5-42.1,157.1-76.6,174.3-76.6c59.4,0,69,65.1,36.4,247.1c-28.7,164.7-28.7,178.2,0,206.9s47.9,30.6,166.7,9.6c74.7-13.4,168.6-23,210.7-23c65.1,0,76.6,5.7,76.6,42.1c0,23-34.5,107.3-76.6,189.6c-42.1,82.4-76.6,166.7-76.6,185.8c0,47.9,63.2,70.9,245.2,97.7c136,17.2,195.4,44.1,195.4,82.4c0,11.5-61.3,82.4-136,159c-178.1,183.9-176.2,201.1,44.1,312.2c241.4,120.7,239.4,145.6-17.3,279.7c-201.1,105.4-203,126.4-26.8,302.7c74.7,74.7,136,145.6,136,159c0,44.1-51.7,67-201.1,88.1c-275.8,38.3-285.4,53.6-160.9,277.8c42.1,78.5,74.7,160.9,70.9,183.9c-5.7,40.2-15.3,44.1-101.5,42.1c-51.7,0-153.2-9.6-224.1-17.2c-126.4-15.3-128.3-13.4-139.8,32.6c-7.7,26.8,1.9,118.8,17.2,205c30.7,162.8,21.1,231.8-34.5,231.8c-13.4,0-90-34.5-170.5-76.6c-78.5-42.1-166.7-76.6-191.6-76.6c-55.6,0-78.5,51.7-101.5,229.9c-28.7,239.4-70.9,249-258.6,57.5c-70.9-72.8-143.7-134.1-159-134.1c-34.5,0-88.1,74.7-143.7,201.1C3336.3,4280.4,3267.4,4320.6,3208,4228.7z M3646.7,3636.8c478.9-128.3,883.1-538.3,1005.7-1019.1c51.7-199.2,51.7-503.8,1.9-701.1c-130.3-511.4-536.4-909.9-1047.8-1032.5c-139.8-32.6-210.7-38.3-390.8-30.6c-388.9,15.3-655.1,134.1-938.6,415.7c-252.9,250.9-392.7,555.5-415.7,909.9c-24.9,406.1,120.7,785.4,415.7,1082.3c203.1,203.1,432.9,329.5,716.4,394.6C3139,3688.5,3485.8,3678.9,3646.7,3636.8z"/><path d="M3127.5,3337.9c-243.3-36.4-436.7-136-611.1-314.2c-222.2-222.2-316.1-450.2-316.1-758.6c0-287.3,101.5-547.9,287.3-743.2c432.9-454,1122.5-459.7,1561.2-15.3c425.3,431,421.4,1095.7-9.6,1524.8C3798,3270.9,3451.3,3389.7,3127.5,3337.9z"/></g></g>
</svg>
