<svg xmlns="http://www.w3.org/2000/svg" xmlns:xlink="http://www.w3.org/1999/xlink" width="430" height="430" version="1.1" style=""><rect id="backgroundrect" width="100%" height="100%" x="0" y="0" fill="none" stroke="none"/>
    <!-- Generator: Sketch 42 (36781) - http://www.bohemiancoding.com/sketch -->
    <title>Shape</title>
    <desc>Created with Sketch.</desc>
    <defs/>
    
<g class="currentLayer" style=""><title>Layer 1</title><g id="Identidad-ActualidadBlog-2017" stroke="none" stroke-width="1" fill="#d50b0b" fill-rule="evenodd" class="selected" fill-opacity="1" transform="">
        <g id="HardwareLibre" fill="#d50b0b" transform="" fill-opacity="1">
            <g id="Shape" transform="" fill="#d50b0b" fill-opacity="1">
                <path d="M 55.3391 338.296 C 55.3391 358.467 71.6773 374.806 91.85 374.806 L 100.978 374.806 L 100.978 406.753 C 100.978 419.349 111.201 429.572 123.797 429.572 C 136.393 429.572 146.617 419.349 146.617 406.753 L 146.616 374.806 L 192.254 374.806 L 192.254 406.753 C 192.254 419.349 202.477 429.572 215.073 429.572 C 227.669 429.572 237.893 419.349 237.893 406.753 L 237.892 374.806 L 283.53 374.806 L 283.53 406.753 C 283.53 419.349 293.753 429.572 306.349 429.572 C 318.945 429.572 329.168 419.349 329.168 406.753 L 329.168 374.806 L 338.296 374.806 C 358.468 374.806 374.807 358.468 374.807 338.296 L 374.807 329.168 L 406.754 329.168 C 419.35 329.168 429.573 318.944 429.573 306.348 C 429.573 293.752 419.35 283.53 406.754 283.53 L 374.806 283.53 L 374.806 237.892 L 406.753 237.892 C 419.349 237.892 429.572 227.669 429.572 215.072 C 429.572 202.476 419.35 192.254 406.754 192.254 L 374.806 192.254 L 374.806 146.616 L 406.753 146.616 C 419.349 146.616 429.572 136.393 429.572 123.796 C 429.572 111.2 419.35 100.977 406.754 100.977 L 374.806 100.977 L 374.806 91.8491 C 374.806 71.6773 358.468 55.3382 338.296 55.3382 L 329.168 55.3382 L 329.168 23.3918 C 329.168 10.7956 318.945 0.573208 306.349 0.573208 C 293.753 0.573208 283.531 10.7956 283.531 23.3918 L 283.531 55.3391 L 237.893 55.3391 L 237.892 23.3918 C 237.892 10.7956 227.669 0.573208 215.073 0.573208 C 202.477 0.573208 192.254 10.7956 192.254 23.3918 L 192.254 55.3391 L 146.616 55.3391 L 146.616 23.3918 C 146.616 10.7956 136.393 0.573208 123.796 0.573208 C 111.2 0.573208 100.977 10.7956 100.977 23.3918 L 100.977 55.3391 L 91.8491 55.3391 C 71.6773 55.3391 55.3382 71.6773 55.3382 91.85 L 55.3382 100.978 L 23.3926 100.977 C 10.7964 100.977 0.573193 111.2 0.573193 123.796 C 0.573193 136.393 10.7964 146.615 23.3926 146.615 L 55.3391 146.615 L 55.3391 192.253 L 23.3926 192.254 C 10.7964 192.254 0.573193 202.476 0.573193 215.072 C 0.573193 227.669 10.7964 237.892 23.3926 237.892 L 55.3391 237.892 L 55.3391 283.53 L 23.3926 283.53 C 10.7964 283.53 0.573193 293.753 0.573193 306.349 C 0.573193 318.945 10.7964 329.169 23.3926 329.169 L 55.3391 329.169 L 55.3391 338.296 L 55.3391 338.296 Z M 283.531 166.696 L 283.531 263.449 C 283.531 274.585 274.586 283.531 263.449 283.531 L 166.696 283.53 C 155.561 283.53 146.615 274.585 146.615 263.449 L 146.616 166.696 C 146.616 155.561 155.561 146.615 166.697 146.615 L 263.45 146.615 C 274.585 146.615 283.531 155.561 283.531 166.696 L 283.531 166.696 Z" id="svg_1" transform="" fill="#d50b0b" fill-opacity="1"/>
            </g>
        </g>
    </g></g></svg>