<svg width="430" height="430" xmlns="http://www.w3.org/2000/svg">
 <!-- Generator: Sketch 42 (36781) - http://www.bohemiancoding.com/sketch -->
 <title>Shape</title>
 <desc>Created with Sketch.</desc>

 <g class="currentLayer">
  <title>Layer 1</title>
  <g fill-rule="evenodd" fill="#1aeb1a" id="Identidad-ActualidadBlog-2017">
   <g fill="#1aeb1a" id="HardwareLibre">
    <g fill="#1aeb1a" id="Shape">
     <path fill="#00a300" id="svg_1" d="m55.3391,338.296c0,20.171 16.3382,36.51 36.5109,36.51l9.128,0l0,31.947c0,12.596 10.223,22.819 22.819,22.819c12.596,0 22.82,-10.223 22.82,-22.819l-0.001,-31.947l45.638,0l0,31.947c0,12.596 10.223,22.819 22.819,22.819c12.596,0 22.82,-10.223 22.82,-22.819l-0.001,-31.947l45.638,0l0,31.947c0,12.596 10.223,22.819 22.819,22.819c12.596,0 22.819,-10.223 22.819,-22.819l0,-31.947l9.128,0c20.172,0 36.511,-16.338 36.511,-36.51l0,-9.128l31.947,0c12.596,0 22.819,-10.224 22.819,-22.82c0,-12.596 -10.223,-22.818 -22.819,-22.818l-31.948,0l0,-45.638l31.947,0c12.596,0 22.819,-10.223 22.819,-22.82c0,-12.596 -10.222,-22.818 -22.818,-22.818l-31.948,0l0,-45.638l31.947,0c12.596,0 22.819,-10.223 22.819,-22.82c0,-12.596 -10.222,-22.819 -22.818,-22.819l-31.948,0l0,-9.1279c0,-20.1718 -16.338,-36.5109 -36.51,-36.5109l-9.128,0l0,-31.9464c0,-12.5962 -10.223,-22.81859 -22.819,-22.81859c-12.596,0 -22.818,10.22239 -22.818,22.81859l0,31.9473l-45.638,0l-0.001,-31.9473c0,-12.5962 -10.223,-22.81859 -22.819,-22.81859c-12.596,0 -22.819,10.22239 -22.819,22.81859l0,31.9473l-45.638,0l0,-31.9473c0,-12.5962 -10.223,-22.81859 -22.82,-22.81859c-12.596,0 -22.819,10.22239 -22.819,22.81859l0,31.9473l-9.1279,0c-20.1718,0 -36.5109,16.3382 -36.5109,36.5109l0,9.128l-31.9456,-0.001c-12.5962,0 -22.81941,10.223 -22.81941,22.819c0,12.597 10.22321,22.819 22.81941,22.819l31.9465,0l0,45.638l-31.9465,0.001c-12.5962,0 -22.81941,10.222 -22.81941,22.818c0,12.597 10.22321,22.82 22.81941,22.82l31.9465,0l0,45.638l-31.9465,0c-12.5962,0 -22.81941,10.223 -22.81941,22.819c0,12.596 10.22321,22.82 22.81941,22.82l31.9465,0l0,9.127l0,0zm228.1919,-171.6l0,96.753c0,11.136 -8.945,20.082 -20.082,20.082l-96.753,-0.001c-11.135,0 -20.081,-8.945 -20.081,-20.081l0.001,-96.753c0,-11.135 8.945,-20.081 20.081,-20.081l96.753,0c11.135,0 20.081,8.946 20.081,20.081l0,0z"/>
    </g>
   </g>
  </g>
 </g>
 <g>
  <title>Layer 2</title>
  <rect fill="none" y="0" x="0" height="100%" width="100%" id="backgroundrect"/>
 </g>
 <g>
  <title>background</title>
  <rect fill="none" id="canvas_background" height="402" width="582" y="-1" x="-1"/>
 </g>
</svg>